<?xml version="1.0" encoding="UTF-8"?>
<svg id="Capa_1" xmlns="http://www.w3.org/2000/svg" version="1.1" viewBox="0 0 595.28 560.56">
  <!-- Generator: Adobe Illustrator 29.2.1, SVG Export Plug-In . SVG Version: 2.1.0 Build 116)  -->
  <defs>
    <style>
      .st0 {
        fill: #fff;
      }
    </style>
  </defs>
  <path class="st0" d="M329.98,73.3l15.04,7.96c-54.31-13.44-113.23,2.7-140.43,54.07-46.14,87.12,19.03,198.54,94.94,245.11,48.84,29.96,121.36,27.17,175.88,17.5l-32.86-9.84c20.11-8.26,38.14-21.92,50.84-39.56l8.31-14.14c-.93,10.38-6.94,25.2-2.73,35.06,3.21,7.5,17.88,21.84,23.36,30.34,10.12,15.7,4.86,18.24-2.89,32.86-5.02,9.47-13.03,25.41-19,33.6-4.95,6.79-8.36,6.46-15.49,2.7-6.01-3.17-34.08-26.82-36.38-26.81-10.81,7.45-21.85,13.99-33.78,19.55-6.86,3.2-14.85,2.5-15.08,11.32-.27,10.09.76,23.17,1.15,34.01.57,15.84.14,22.56-8.23,22.36-22.53-1.5-47.95,2.18-70.13.11-8.1-.76-12.31-6.18-15.27-13.22-6.66-15.86-8.6-36.08-15.06-52.33-22.27-7.45-43.49-17.77-63.21-30.45-1.78-.39-5.01,2.36-6.57,3.45-8.7,6.09-24.2,21.89-32.71,25.36-6.42,2.62-10.7.57-16.15-3-17.22-19.23-38.22-37.42-54.81-56.96-5.05-5.95-8.84-9.76-8.26-18.14.85-12.27,22.41-33.37,26.47-45.98-11.27-20.49-20.7-41.65-28.2-63.84-1.19-1.95-3.61-2.53-5.63-3.24-11.97-4.19-33.76-6.93-43.75-12.14-4.72-2.46-7.48-8.01-9.02-12.89,1.48-21.76-2.19-46.54-.12-67.93.71-7.31,4.21-11.44,11.66-12.45,6.84-.93,41.66,1.41,44.08-1.4,2.51-17.72,12.89-32.72,19.92-48.48-.33-5.31-21.39-27.18-24.34-34.9-2.77-7.25-.47-10.07,4.72-14.4,7.63-6.36,30.43-22.88,38.78-26.96,2.2-1.08,4.06-2.13,6.64-2.21,10.97-.36,29.5,21.1,39.56,26.19,5.6,2.83,16.5-2.56,23.18-3.9,9.08-1.82,18.41-2.06,27.5-3.73,1.01-1.18.69-25.62,2.56-30.87,1.4-3.94,6.5-4.33,10.03-3.99,12.07,1.15,36.37,7.18,48.7,10.51,3.07.83,6.19,1.36,8.91,3.15,9.31,6.13,11.8,29.02,17.88,38.55Z"/>
  <path class="st0" d="M325.3,381.5l29.22-12.95c26.77-15.73,53.14-36.28,65.02-65.92l2.17,8.22,2.34,30.53,2.03,1.25c16.93-11.07,29.92-24.64,33.69-45.24,20.92-114.37-176.46-250.17-242.7-116.69l-6.82,24.39c-3.61-54.69,26.4-106.54,83.06-115.8,101.06-16.51,199.65,82.18,205.15,179.86,5.34,94.68-97.16,121.37-173.17,112.35Z"/>
</svg>