<?xml version="1.0" encoding="UTF-8"?>
<svg id="Capa_1" xmlns="http://www.w3.org/2000/svg" version="1.1" viewBox="0 0 595.28 560.56">
  <!-- Generator: Adobe Illustrator 29.2.1, SVG Export Plug-In . SVG Version: 2.1.0 Build 116)  -->
  <defs>
    <style>
      .st0 {
        fill: #e59435;
      }
    </style>
  </defs>
  <path class="st0" d="M300.95,75.6l6.36,3.37c-22.99-5.69-47.92,1.14-59.43,22.88-19.53,36.87,8.05,84.03,40.18,103.74,20.67,12.68,51.36,11.5,74.44,7.41l-13.91-4.16c8.51-3.5,16.14-9.28,21.52-16.74l3.52-5.98c-.39,4.39-2.94,10.67-1.16,14.84,1.36,3.17,7.57,9.25,9.88,12.84,4.28,6.65,2.06,7.72-1.23,13.91-2.12,4.01-5.52,10.76-8.04,14.22-2.09,2.88-3.54,2.73-6.56,1.14-2.54-1.34-14.42-11.35-15.4-11.35-4.58,3.15-9.25,5.92-14.29,8.28-2.9,1.35-6.28,1.06-6.38,4.79-.11,4.27.45,9.8.49,14.4.01,1.41.62,2.5.46,4.1-.21,2.02-1.75,4.96-3.94,5.36-9.54-.63-20.29.92-29.68.05-3.43-.32-5.21-2.62-6.46-5.6-2.82-6.71-3.64-15.27-6.38-22.15-9.42-3.15-18.41-7.52-26.75-12.89-.75-.17-2.12,1-2.78,1.46-3.68,2.58-10.24,9.26-13.84,10.73-2.72,1.11-4.53.24-6.83-1.27-7.29-8.14-16.17-15.84-23.2-24.11-2.14-2.52-3.74-4.13-3.5-7.68.36-5.19,9.48-14.12,11.2-19.46-4.77-8.67-8.76-17.63-11.94-27.02-.5-.83-1.53-1.07-2.38-1.37-5.07-1.77-14.29-2.93-18.52-5.14-2-1.04-3.16-3.39-3.82-5.46.62-9.21-.93-19.69-.05-28.75.3-3.09,1.78-4.84,4.93-5.27,2.9-.39,17.63.6,18.66-.59,1.06-7.5,5.45-13.85,8.43-20.52-.14-2.25-9.05-11.5-10.3-14.77-1.17-3.07-.2-4.26,2-6.09,3.23-2.69,12.88-9.68,16.41-11.41.93-.46,1.72-.9,2.81-.94,4.64-.15,12.48,8.93,16.74,11.08,2.37,1.2,6.98-1.09,9.81-1.65,3.84-.77,7.79-.87,11.64-1.58.43-.5.29-10.84,1.08-13.06.59-1.67,2.75-1.83,4.24-1.69,5.11.49,15.39,3.04,20.61,4.45,1.3.35,2.62.57,3.77,1.33,3.94,2.6,4.99,12.28,7.57,16.31Z"/>
  <path class="st0" d="M298.97,206.04l12.37-5.48c11.33-6.66,22.49-15.35,27.52-27.9l.92,3.48.99,12.92.86.53c7.17-4.68,12.66-10.43,14.26-19.15,8.85-48.4-74.68-105.88-102.72-49.39l-2.89,10.32c-1.53-23.15,11.17-45.09,35.15-49.01,42.77-6.99,84.49,34.78,86.83,76.12,2.26,40.07-41.12,51.37-73.29,47.55Z"/>
  <path class="st0" d="M232.42,324.3c25.05,2.41,34.78,30.99,15.49,47.03l-5.53,3.29,16.7,24.34h-14.61l-15.07-21.8h-19.94v21.8h-13.91v-74.66h36.87ZM209.47,365.57h20.64c1.03,0,5.21-1.44,6.36-1.99,13.15-6.23,8.1-27.69-7.29-27.69h-19.71v29.68Z"/>
  <path class="st0" d="M322.85,324.3c25.05,2.41,34.78,30.99,15.49,47.03l-5.53,3.29,16.7,24.34h-14.61l-15.07-21.8h-19.94v21.8h-13.91v-74.66h36.87ZM299.9,365.57h20.64c1.03,0,5.21-1.44,6.36-1.99,13.15-6.23,8.1-27.69-7.29-27.69h-19.71v29.68Z"/>
  <path class="st0" d="M506.03,324.3c25.05,2.41,34.78,30.99,15.49,47.03l-5.53,3.29,16.7,24.34h-14.61l-15.07-21.8h-19.94v21.8h-13.91v-74.66h36.87ZM483.08,365.57h20.64c1.03,0,5.21-1.44,6.36-1.99,13.15-6.23,8.1-27.69-7.29-27.69h-19.71v29.68Z"/>
  <polygon class="st0" points="165.88 324.3 165.88 335.89 125.53 335.89 125.53 355.37 161.24 355.37 161.24 366.5 125.53 366.5 125.53 387.37 167.27 387.37 167.27 398.96 111.62 398.96 111.62 324.3 165.88 324.3"/>
  <path class="st0" d="M446.91,398.96h-14.14l-7.96-17.08-37.31.2-6.9,16.88h-14.38l33.15-74.2c.34-.52.86-.42,1.37-.49,2.41-.3,9.21-.28,11.65,0,.66.08,1.22.04,1.56.76l32.97,73.93ZM420.47,370.67l-14.37-32.46-13.45,32.46h27.82Z"/>
  <polygon class="st0" points="85.18 324.3 85.18 335.89 44.84 335.89 44.84 358.62 80.55 358.62 80.55 370.21 44.84 370.21 44.84 398.96 30.93 398.96 30.93 324.3 85.18 324.3"/>
  <rect class="st0" x="559.6" y="324.3" width="13.91" height="74.66"/>
  <polygon class="st0" points="162.17 465.28 162.17 437.92 165.88 437.92 165.88 472.23 162.4 471.76 140.83 444.87 140.83 472.23 137.12 472.23 137.12 437.92 140.64 438.35 162.17 465.28"/>
  <path class="st0" d="M466.15,437.92c12.72,1.51,15.34,17.97,3.47,22.51l7.9,11.81-4.08-.09-7.52-10.83-.66-.2c-.44.02-.81.46-.95.46h-10.43v10.67h-3.71v-34.32c5.07.43,11.05-.59,16,0ZM453.86,458.32h11.83c.16,0,2.74-.87,3.13-1.05,5.91-2.71,6.32-11.92.77-14.91-.38-.21-2.81-1.21-2.97-1.21h-12.75v17.16Z"/>
  <path class="st0" d="M88.32,438.04c13.29-1.8,23.14,5.79,21.92,19.61-1.79,20.46-38.38,20.6-35.72-5.58.68-6.67,7.17-13.13,13.79-14.03ZM90.17,440.82c-18.26,2.47-15.29,30.7,4.01,28.58,18.67-2.05,15.78-31.26-4.01-28.58Z"/>
  <path class="st0" d="M401.81,438.04c13.29-1.8,23.14,5.79,21.92,19.61-1.79,20.46-38.38,20.6-35.72-5.58.68-6.67,7.17-13.13,13.79-14.03ZM403.66,440.82c-18.26,2.47-15.29,30.7,4.01,28.58,18.67-2.05,15.78-31.26-4.01-28.58Z"/>
  <path class="st0" d="M527.6,437.92v3.25h-19.94v12.06h17.62v3.25h-17.62v12.52h20.17c1.05.75.66,2.12.7,3.25h-24.58v-34.32h23.65Z"/>
  <path class="st0" d="M215.03,443.94c-4.21-2.7-9.81-4.43-14.69-2.41-4.57,1.89-5.72,7.54-1.02,10.01,6.48,3.42,18.95,1.79,18.06,12.59-.88,10.78-19.13,9.59-25.49,4.33l1.59-3.19c4.23,5.84,23.07,6.19,20.08-3.86-1.67-5.62-19.16-3.54-20.66-12.26-1.91-11.15,10.82-12.89,18.88-10.53,3.41,1,5.01,1.65,3.26,5.31Z"/>
  <path class="st0" d="M574.89,443.94c-4.21-2.7-9.81-4.43-14.69-2.41-4.57,1.89-5.72,7.54-1.02,10.01,6.48,3.42,18.95,1.79,18.06,12.59s-19.13,9.59-25.49,4.33l1.59-3.19c4.23,5.84,23.07,6.19,20.08-3.86-1.67-5.62-19.16-3.54-20.66-12.26-1.91-11.15,10.82-12.89,18.88-10.53,3.41,1,5.01,1.65,3.26,5.31Z"/>
  <path class="st0" d="M247.03,437.92v21.1c0,.53.9,4.17,1.17,4.86,2.85,7.45,16.12,7.49,19,0,.31-.82,1.17-3.75,1.17-4.4v-21.56h3.25v23.88c0,4.73-5.91,9.84-10.49,10.38-7.82.93-15.24-1.23-17.13-9.66-.16-.73-.67-3.89-.67-4.43v-20.17h3.71Z"/>
  <path class="st0" d="M35.45,438.04c2.83-.38,7.24-.35,9.95.47,1.39.42,6.78,2.94,6.34,4.65-.94,3.61-4.54-.49-6.44-1.29-7.7-3.26-17.17.61-19.61,8.67-4.5,14.85,13.09,25.1,24.02,14.76l2.05,2.48c-5.07,5.81-16.13,5.79-22.37,2.07-12.98-7.74-9.24-29.72,6.07-31.8Z"/>
  <path class="st0" d="M367.14,437.92v3.25h-12.06v31.07h-3.25v-31.07h-11.83c-1.05-.75-.66-2.12-.7-3.25h27.82Z"/>
  <path class="st0" d="M304.54,437.92v31.07h18.78c1.05.75.66,2.12.7,3.25h-23.19v-34.32h3.71Z"/>
</svg>